<mxfile host="app.diagrams.net" modified="2024-03-27T21:14:36.879Z" agent="Mozilla/5.0 (Windows NT 10.0; Win64; x64) AppleWebKit/537.36 (KHTML, like Gecko) Chrome/123.0.0.0 Safari/537.36" etag="H1u-C-0r8ndkkfSX62ce" version="24.2.0" type="google">
  <diagram name="Página-1" id="7ogZM03AZeKMfadvvvwa">
    <mxGraphModel grid="1" page="1" gridSize="10" guides="1" tooltips="1" connect="1" arrows="1" fold="1" pageScale="1" pageWidth="827" pageHeight="1169" background="none" math="0" shadow="1">
      <root>
        <mxCell id="0" />
        <mxCell id="1" parent="0" />
        <mxCell id="B9qtQq5T444P4j3lDMwM-16" style="edgeStyle=orthogonalEdgeStyle;rounded=1;orthogonalLoop=1;jettySize=auto;html=1;exitX=0.5;exitY=1;exitDx=0;exitDy=0;entryX=0.5;entryY=0;entryDx=0;entryDy=0;endArrow=none;endFill=0;" edge="1" parent="1" target="B9qtQq5T444P4j3lDMwM-31">
          <mxGeometry relative="1" as="geometry">
            <mxPoint x="-770.77" y="1053" as="targetPoint" />
            <mxPoint x="-770.77" y="113" as="sourcePoint" />
          </mxGeometry>
        </mxCell>
        <mxCell id="B9qtQq5T444P4j3lDMwM-1" value="FLA" style="text;html=1;align=center;verticalAlign=middle;whiteSpace=wrap;rounded=1;" vertex="1" parent="1">
          <mxGeometry x="-800" y="83" width="60" height="30" as="geometry" />
        </mxCell>
        <mxCell id="B9qtQq5T444P4j3lDMwM-17" style="edgeStyle=orthogonalEdgeStyle;rounded=1;orthogonalLoop=1;jettySize=auto;html=1;exitX=0.5;exitY=1;exitDx=0;exitDy=0;entryX=0.5;entryY=0;entryDx=0;entryDy=0;endArrow=none;endFill=0;" edge="1" parent="1" source="B9qtQq5T444P4j3lDMwM-2" target="B9qtQq5T444P4j3lDMwM-32">
          <mxGeometry relative="1" as="geometry">
            <mxPoint x="-690" y="1023" as="targetPoint" />
          </mxGeometry>
        </mxCell>
        <mxCell id="B9qtQq5T444P4j3lDMwM-2" value="FLU" style="text;html=1;align=center;verticalAlign=middle;whiteSpace=wrap;rounded=1;" vertex="1" parent="1">
          <mxGeometry x="-720" y="83" width="60" height="30" as="geometry" />
        </mxCell>
        <mxCell id="B9qtQq5T444P4j3lDMwM-3" value="&lt;b&gt;&lt;font style=&quot;font-size: 14px;&quot;&gt;S_FLA&lt;/font&gt;&lt;/b&gt;" style="text;html=1;align=center;verticalAlign=middle;whiteSpace=wrap;rounded=1;" vertex="1" parent="1">
          <mxGeometry x="-156" y="368" width="60" height="30" as="geometry" />
        </mxCell>
        <mxCell id="B9qtQq5T444P4j3lDMwM-4" value="&lt;b&gt;&lt;font style=&quot;font-size: 14px;&quot;&gt;S_FLU&lt;/font&gt;&lt;/b&gt;" style="text;html=1;align=center;verticalAlign=middle;whiteSpace=wrap;rounded=1;" vertex="1" parent="1">
          <mxGeometry x="-166" y="453" width="60" height="30" as="geometry" />
        </mxCell>
        <mxCell id="B9qtQq5T444P4j3lDMwM-12" style="edgeStyle=orthogonalEdgeStyle;rounded=1;orthogonalLoop=1;jettySize=auto;html=1;exitX=0.5;exitY=1;exitDx=0;exitDy=0;entryX=0.5;entryY=0;entryDx=0;entryDy=0;endArrow=none;endFill=0;" edge="1" parent="1" source="B9qtQq5T444P4j3lDMwM-5" target="B9qtQq5T444P4j3lDMwM-33">
          <mxGeometry relative="1" as="geometry">
            <mxPoint x="-730" y="1023" as="targetPoint" />
          </mxGeometry>
        </mxCell>
        <mxCell id="B9qtQq5T444P4j3lDMwM-5" value="GAB" style="text;html=1;align=center;verticalAlign=middle;whiteSpace=wrap;rounded=1;" vertex="1" parent="1">
          <mxGeometry x="-760" y="83" width="60" height="30" as="geometry" />
        </mxCell>
        <mxCell id="B9qtQq5T444P4j3lDMwM-18" style="edgeStyle=orthogonalEdgeStyle;rounded=1;orthogonalLoop=1;jettySize=auto;html=1;exitX=0.5;exitY=1;exitDx=0;exitDy=0;entryX=0.5;entryY=0;entryDx=0;entryDy=0;endArrow=none;endFill=0;" edge="1" parent="1" source="B9qtQq5T444P4j3lDMwM-6" target="B9qtQq5T444P4j3lDMwM-34">
          <mxGeometry relative="1" as="geometry">
            <mxPoint x="-651" y="1023" as="targetPoint" />
          </mxGeometry>
        </mxCell>
        <mxCell id="B9qtQq5T444P4j3lDMwM-6" value="DEF" style="text;html=1;align=center;verticalAlign=middle;whiteSpace=wrap;rounded=1;" vertex="1" parent="1">
          <mxGeometry x="-681" y="83" width="60" height="30" as="geometry" />
        </mxCell>
        <mxCell id="B9qtQq5T444P4j3lDMwM-8" value="&lt;h1 style=&quot;margin-top: 0px; line-height: 90%; padding-left: 20px;&quot;&gt;&lt;span id=&quot;docs-internal-guid-733098d0-7fff-f6c7-5be4-7a9e29a1f5f7&quot; style=&quot;font-weight:normal;&quot;&gt;&lt;p style=&quot;line-height: 90%; margin-top: 0pt; margin-bottom: 10pt;&quot; dir=&quot;ltr&quot;&gt;&lt;span style=&quot;font-size: 13pt; font-family: Arial, sans-serif; background-color: transparent; font-weight: 700; font-variant-numeric: normal; font-variant-east-asian: normal; font-variant-alternates: normal; font-variant-position: normal; vertical-align: baseline; white-space-collapse: preserve;&quot;&gt;REPRESENTAÇÃO BINÁRIA:&lt;/span&gt;&lt;span style=&quot;font-size: 11pt; font-family: Arial, sans-serif; background-color: transparent; font-variant-numeric: normal; font-variant-east-asian: normal; font-variant-alternates: normal; font-variant-position: normal; vertical-align: baseline; white-space-collapse: preserve;&quot;&gt;&lt;br&gt;&lt;/span&gt;&lt;/p&gt;&lt;p style=&quot;line-height: 90%; margin-top: 0pt; margin-bottom: 10pt;&quot; dir=&quot;ltr&quot;&gt;&lt;span style=&quot;font-size: 11pt; font-family: Arial, sans-serif; background-color: transparent; font-variant-numeric: normal; font-variant-east-asian: normal; font-variant-alternates: normal; font-variant-position: normal; vertical-align: baseline; white-space-collapse: preserve;&quot;&gt;Flamengo ganha:&lt;/span&gt;&lt;/p&gt;&lt;ul style=&quot;margin-top: 0px; margin-bottom: 0px; padding-inline-start: 48px; line-height: 90%;&quot;&gt;&lt;li aria-level=&quot;1&quot; style=&quot;list-style-type: disc; font-size: 11pt; font-family: Arial, sans-serif; background-color: transparent; font-variant-numeric: normal; font-variant-east-asian: normal; font-variant-alternates: normal; font-variant-position: normal; vertical-align: baseline; white-space: pre;&quot; dir=&quot;ltr&quot;&gt;&lt;p role=&quot;presentation&quot; style=&quot;line-height: 90%; margin-top: 0pt; margin-bottom: 0pt;&quot; dir=&quot;ltr&quot;&gt;&lt;span style=&quot;font-size: 11pt; background-color: transparent; font-variant-numeric: normal; font-variant-east-asian: normal; font-variant-alternates: normal; font-variant-position: normal; vertical-align: baseline; text-wrap: wrap;&quot;&gt;FLA = 1&lt;/span&gt;&lt;/p&gt;&lt;/li&gt;&lt;li aria-level=&quot;1&quot; style=&quot;list-style-type: disc; font-size: 11pt; font-family: Arial, sans-serif; background-color: transparent; font-variant-numeric: normal; font-variant-east-asian: normal; font-variant-alternates: normal; font-variant-position: normal; vertical-align: baseline; white-space: pre;&quot; dir=&quot;ltr&quot;&gt;&lt;p role=&quot;presentation&quot; style=&quot;line-height: 90%; margin-top: 0pt; margin-bottom: 10pt;&quot; dir=&quot;ltr&quot;&gt;&lt;span style=&quot;font-size: 11pt; background-color: transparent; font-variant-numeric: normal; font-variant-east-asian: normal; font-variant-alternates: normal; font-variant-position: normal; vertical-align: baseline; text-wrap: wrap;&quot;&gt;FLU = 0&lt;/span&gt;&lt;/p&gt;&lt;/li&gt;&lt;/ul&gt;&lt;p style=&quot;line-height: 90%; margin-top: 0pt; margin-bottom: 10pt;&quot; dir=&quot;ltr&quot;&gt;&lt;span style=&quot;font-size: 11pt; font-family: Arial, sans-serif; background-color: transparent; font-variant-numeric: normal; font-variant-east-asian: normal; font-variant-alternates: normal; font-variant-position: normal; vertical-align: baseline; white-space-collapse: preserve;&quot;&gt;Fluminense ganha:&lt;/span&gt;&lt;/p&gt;&lt;ul style=&quot;margin-top: 0px; margin-bottom: 0px; padding-inline-start: 48px; line-height: 90%;&quot;&gt;&lt;li aria-level=&quot;1&quot; style=&quot;list-style-type: disc; font-size: 11pt; font-family: Arial, sans-serif; background-color: transparent; font-variant-numeric: normal; font-variant-east-asian: normal; font-variant-alternates: normal; font-variant-position: normal; vertical-align: baseline; white-space: pre;&quot; dir=&quot;ltr&quot;&gt;&lt;p role=&quot;presentation&quot; style=&quot;line-height: 90%; margin-top: 0pt; margin-bottom: 0pt;&quot; dir=&quot;ltr&quot;&gt;&lt;span style=&quot;font-size: 11pt; background-color: transparent; font-variant-numeric: normal; font-variant-east-asian: normal; font-variant-alternates: normal; font-variant-position: normal; vertical-align: baseline; text-wrap: wrap;&quot;&gt;FLU = 1&lt;/span&gt;&lt;/p&gt;&lt;/li&gt;&lt;li aria-level=&quot;1&quot; style=&quot;list-style-type: disc; font-size: 11pt; font-family: Arial, sans-serif; background-color: transparent; font-variant-numeric: normal; font-variant-east-asian: normal; font-variant-alternates: normal; font-variant-position: normal; vertical-align: baseline; white-space: pre;&quot; dir=&quot;ltr&quot;&gt;&lt;p role=&quot;presentation&quot; style=&quot;line-height: 90%; margin-top: 0pt; margin-bottom: 10pt;&quot; dir=&quot;ltr&quot;&gt;&lt;span style=&quot;font-size: 11pt; background-color: transparent; font-variant-numeric: normal; font-variant-east-asian: normal; font-variant-alternates: normal; font-variant-position: normal; vertical-align: baseline; text-wrap: wrap;&quot;&gt;FLA = 0&lt;/span&gt;&lt;/p&gt;&lt;/li&gt;&lt;/ul&gt;&lt;p style=&quot;line-height: 90%; margin-top: 0pt; margin-bottom: 10pt;&quot; dir=&quot;ltr&quot;&gt;&lt;span style=&quot;font-size: 11pt; font-family: Arial, sans-serif; background-color: transparent; font-variant-numeric: normal; font-variant-east-asian: normal; font-variant-alternates: normal; font-variant-position: normal; vertical-align: baseline; white-space-collapse: preserve;&quot;&gt;Empate:&lt;/span&gt;&lt;/p&gt;&lt;ul style=&quot;margin-top: 0px; margin-bottom: 0px; padding-inline-start: 48px; line-height: 90%;&quot;&gt;&lt;li aria-level=&quot;1&quot; style=&quot;list-style-type: disc; font-size: 11pt; font-family: Arial, sans-serif; background-color: transparent; font-variant-numeric: normal; font-variant-east-asian: normal; font-variant-alternates: normal; font-variant-position: normal; vertical-align: baseline; white-space: pre;&quot; dir=&quot;ltr&quot;&gt;&lt;p role=&quot;presentation&quot; style=&quot;line-height: 90%; margin-top: 0pt; margin-bottom: 0pt;&quot; dir=&quot;ltr&quot;&gt;&lt;span style=&quot;font-size: 11pt; background-color: transparent; font-variant-numeric: normal; font-variant-east-asian: normal; font-variant-alternates: normal; font-variant-position: normal; vertical-align: baseline; text-wrap: wrap;&quot;&gt;EMP = 1&lt;/span&gt;&lt;/p&gt;&lt;/li&gt;&lt;/ul&gt;&lt;p style=&quot;line-height: 90%; margin-top: 0pt; margin-bottom: 10pt;&quot; dir=&quot;ltr&quot;&gt;&lt;span style=&quot;font-size: 11pt; font-family: Arial, sans-serif; background-color: transparent; font-variant-numeric: normal; font-variant-east-asian: normal; font-variant-alternates: normal; font-variant-position: normal; vertical-align: baseline; white-space-collapse: preserve;&quot;&gt;Gabigol faz gol:&lt;/span&gt;&lt;/p&gt;&lt;ul style=&quot;margin-top: 0px; margin-bottom: 0px; padding-inline-start: 48px; line-height: 90%;&quot;&gt;&lt;li aria-level=&quot;1&quot; style=&quot;list-style-type: disc; font-size: 11pt; font-family: Arial, sans-serif; background-color: transparent; font-variant-numeric: normal; font-variant-east-asian: normal; font-variant-alternates: normal; font-variant-position: normal; vertical-align: baseline; white-space: pre;&quot; dir=&quot;ltr&quot;&gt;&lt;p role=&quot;presentation&quot; style=&quot;line-height: 90%; margin-top: 0pt; margin-bottom: 10pt;&quot; dir=&quot;ltr&quot;&gt;&lt;span style=&quot;font-size: 11pt; background-color: transparent; font-variant-numeric: normal; font-variant-east-asian: normal; font-variant-alternates: normal; font-variant-position: normal; vertical-align: baseline; text-wrap: wrap;&quot;&gt;GAB = 1&lt;/span&gt;&lt;/p&gt;&lt;/li&gt;&lt;/ul&gt;&lt;p style=&quot;line-height: 90%; margin-top: 0pt; margin-bottom: 10pt;&quot; dir=&quot;ltr&quot;&gt;&lt;span style=&quot;font-size: 11pt; font-family: Arial, sans-serif; background-color: transparent; font-variant-numeric: normal; font-variant-east-asian: normal; font-variant-alternates: normal; font-variant-position: normal; vertical-align: baseline; white-space-collapse: preserve;&quot;&gt;Goleiro faz 3 defesas difíceis:&lt;/span&gt;&lt;/p&gt;&lt;ul style=&quot;margin-top: 0px; margin-bottom: 0px; padding-inline-start: 48px; line-height: 90%;&quot;&gt;&lt;li aria-level=&quot;1&quot; style=&quot;list-style-type: disc; font-size: 11pt; font-family: Arial, sans-serif; background-color: transparent; font-variant-numeric: normal; font-variant-east-asian: normal; font-variant-alternates: normal; font-variant-position: normal; vertical-align: baseline; white-space: pre;&quot; dir=&quot;ltr&quot;&gt;&lt;p role=&quot;presentation&quot; style=&quot;line-height: 90%; margin-top: 0pt; margin-bottom: 10pt;&quot; dir=&quot;ltr&quot;&gt;&lt;span style=&quot;font-size: 11pt; background-color: transparent; font-variant-numeric: normal; font-variant-east-asian: normal; font-variant-alternates: normal; font-variant-position: normal; vertical-align: baseline; text-wrap: wrap;&quot;&gt;DEF = 1&lt;/span&gt;&lt;/p&gt;&lt;/li&gt;&lt;/ul&gt;&lt;/span&gt;&lt;/h1&gt;" style="text;html=1;whiteSpace=wrap;overflow=hidden;rounded=1;strokeColor=default;strokeWidth=2;opacity=50;" vertex="1" parent="1">
          <mxGeometry x="-801" y="653" width="300" height="445" as="geometry" />
        </mxCell>
        <mxCell id="B9qtQq5T444P4j3lDMwM-9" value="&lt;h1 style=&quot;margin-top: 0px; line-height: 80%; padding-left: 20px;&quot;&gt;&lt;span style=&quot;font-weight: normal;&quot; id=&quot;docs-internal-guid-733098d0-7fff-f6c7-5be4-7a9e29a1f5f7&quot;&gt;&lt;p style=&quot;line-height: 80%; margin-top: 0pt; margin-bottom: 10pt;&quot; dir=&quot;ltr&quot;&gt;&lt;span style=&quot;font-size: 11pt; font-family: Arial, sans-serif; background-color: transparent; font-variant-numeric: normal; font-variant-east-asian: normal; font-variant-alternates: normal; font-variant-position: normal; vertical-align: baseline; white-space-collapse: preserve;&quot;&gt;&lt;span style=&quot;font-size: 17.3333px; font-weight: 700;&quot;&gt;REPRESENTAÇÃO BINÁRIA:&lt;/span&gt;&lt;br&gt;&lt;/span&gt;&lt;/p&gt;&lt;p style=&quot;line-height: 80%; margin-top: 0pt; margin-bottom: 10pt;&quot; dir=&quot;ltr&quot;&gt;&lt;span style=&quot;font-size: 11pt; font-family: Arial, sans-serif; background-color: transparent; font-variant-numeric: normal; font-variant-east-asian: normal; font-variant-alternates: normal; font-variant-position: normal; vertical-align: baseline; white-space-collapse: preserve;&quot;&gt;Torcedores Flamengo felizes:&lt;/span&gt;&lt;/p&gt;&lt;ul style=&quot;margin-top: 0px; margin-bottom: 0px; padding-inline-start: 48px; line-height: 80%;&quot;&gt;&lt;li style=&quot;list-style-type: disc; font-size: 11pt; font-family: Arial, sans-serif; background-color: transparent; font-variant-numeric: normal; font-variant-east-asian: normal; font-variant-alternates: normal; font-variant-position: normal; vertical-align: baseline; white-space: pre;&quot; aria-level=&quot;1&quot; dir=&quot;ltr&quot;&gt;&lt;p style=&quot;line-height: 80%; margin-top: 0pt; margin-bottom: 0pt;&quot; role=&quot;presentation&quot; dir=&quot;ltr&quot;&gt;&lt;span style=&quot;font-size: 11pt; background-color: transparent; font-variant-numeric: normal; font-variant-east-asian: normal; font-variant-alternates: normal; font-variant-position: normal; vertical-align: baseline; text-wrap: wrap;&quot;&gt;S_FLA = 1&lt;/span&gt;&lt;/p&gt;&lt;/li&gt;&lt;li style=&quot;list-style-type: disc; font-size: 11pt; font-family: Arial, sans-serif; background-color: transparent; font-variant-numeric: normal; font-variant-east-asian: normal; font-variant-alternates: normal; font-variant-position: normal; vertical-align: baseline; white-space: pre;&quot; aria-level=&quot;1&quot; dir=&quot;ltr&quot;&gt;&lt;p style=&quot;line-height: 80%; margin-top: 0pt; margin-bottom: 10pt;&quot; role=&quot;presentation&quot; dir=&quot;ltr&quot;&gt;&lt;span style=&quot;font-size: 11pt; background-color: transparent; font-variant-numeric: normal; font-variant-east-asian: normal; font-variant-alternates: normal; font-variant-position: normal; vertical-align: baseline; text-wrap: wrap;&quot;&gt;S_FLU = 0&lt;/span&gt;&lt;/p&gt;&lt;/li&gt;&lt;/ul&gt;&lt;p style=&quot;line-height: 80%; margin-top: 0pt; margin-bottom: 10pt;&quot; dir=&quot;ltr&quot;&gt;&lt;span style=&quot;font-size: 11pt; font-family: Arial, sans-serif; background-color: transparent; font-variant-numeric: normal; font-variant-east-asian: normal; font-variant-alternates: normal; font-variant-position: normal; vertical-align: baseline; white-space-collapse: preserve;&quot;&gt;Torcedores Fluminense felizes:&lt;/span&gt;&lt;/p&gt;&lt;ul style=&quot;margin-top: 0px; margin-bottom: 0px; padding-inline-start: 48px; line-height: 80%;&quot;&gt;&lt;li style=&quot;list-style-type: disc; font-size: 11pt; font-family: Arial, sans-serif; background-color: transparent; font-variant-numeric: normal; font-variant-east-asian: normal; font-variant-alternates: normal; font-variant-position: normal; vertical-align: baseline; white-space: pre;&quot; aria-level=&quot;1&quot; dir=&quot;ltr&quot;&gt;&lt;p style=&quot;line-height: 80%; margin-top: 0pt; margin-bottom: 0pt;&quot; role=&quot;presentation&quot; dir=&quot;ltr&quot;&gt;&lt;span style=&quot;font-size: 11pt; background-color: transparent; font-variant-numeric: normal; font-variant-east-asian: normal; font-variant-alternates: normal; font-variant-position: normal; vertical-align: baseline; text-wrap: wrap;&quot;&gt;S_FLU = 1&lt;/span&gt;&lt;/p&gt;&lt;/li&gt;&lt;li style=&quot;list-style-type: disc; font-size: 11pt; font-family: Arial, sans-serif; background-color: transparent; font-variant-numeric: normal; font-variant-east-asian: normal; font-variant-alternates: normal; font-variant-position: normal; vertical-align: baseline; white-space: pre;&quot; aria-level=&quot;1&quot; dir=&quot;ltr&quot;&gt;&lt;p style=&quot;line-height: 80%; margin-top: 0pt; margin-bottom: 10pt;&quot; role=&quot;presentation&quot; dir=&quot;ltr&quot;&gt;&lt;span style=&quot;font-size: 11pt; background-color: transparent; font-variant-numeric: normal; font-variant-east-asian: normal; font-variant-alternates: normal; font-variant-position: normal; vertical-align: baseline; text-wrap: wrap;&quot;&gt;S_FLA = 0&lt;/span&gt;&lt;/p&gt;&lt;/li&gt;&lt;/ul&gt;&lt;/span&gt;&lt;/h1&gt;" style="text;html=1;whiteSpace=wrap;overflow=hidden;rounded=1;fillColor=none;gradientColor=none;gradientDirection=south;fillStyle=auto;perimeterSpacing=2;strokeColor=default;opacity=50;" vertex="1" parent="1">
          <mxGeometry x="-450" y="83" width="430" height="210" as="geometry" />
        </mxCell>
        <mxCell id="B9qtQq5T444P4j3lDMwM-10" value="&lt;h1 style=&quot;margin-top: 0px; line-height: 19.2px;&quot;&gt;&lt;span style=&quot;font-weight: normal;&quot; id=&quot;docs-internal-guid-733098d0-7fff-f6c7-5be4-7a9e29a1f5f7&quot;&gt;&lt;p style=&quot;line-height: 19.2px; margin-top: 0pt; margin-bottom: 10pt;&quot; dir=&quot;ltr&quot;&gt;&lt;span style=&quot;font-size: 11pt; font-family: Arial, sans-serif; background-color: transparent; font-variant-numeric: normal; font-variant-east-asian: normal; font-variant-alternates: normal; font-variant-position: normal; vertical-align: baseline; white-space-collapse: preserve;&quot;&gt;Ambos torcedores felizes:&lt;/span&gt;&lt;/p&gt;&lt;ul style=&quot;margin-top: 0px; margin-bottom: 0px; padding-inline-start: 48px; line-height: 19.2px;&quot;&gt;&lt;li style=&quot;list-style-type: disc; font-size: 11pt; font-family: Arial, sans-serif; background-color: transparent; font-variant-numeric: normal; font-variant-east-asian: normal; font-variant-alternates: normal; font-variant-position: normal; vertical-align: baseline; white-space: pre;&quot; aria-level=&quot;1&quot; dir=&quot;ltr&quot;&gt;&lt;p style=&quot;line-height: 11.7333px; margin-top: 0pt; margin-bottom: 0pt;&quot; role=&quot;presentation&quot; dir=&quot;ltr&quot;&gt;&lt;span style=&quot;font-size: 11pt; background-color: transparent; font-variant-numeric: normal; font-variant-east-asian: normal; font-variant-alternates: normal; font-variant-position: normal; vertical-align: baseline; text-wrap: wrap;&quot;&gt;S_FLU = 1&lt;/span&gt;&lt;/p&gt;&lt;/li&gt;&lt;li style=&quot;list-style-type: disc; font-size: 11pt; font-family: Arial, sans-serif; background-color: transparent; font-variant-numeric: normal; font-variant-east-asian: normal; font-variant-alternates: normal; font-variant-position: normal; vertical-align: baseline; white-space: pre;&quot; aria-level=&quot;1&quot; dir=&quot;ltr&quot;&gt;&lt;p style=&quot;line-height: 11.7333px; margin-top: 0pt; margin-bottom: 10pt;&quot; role=&quot;presentation&quot; dir=&quot;ltr&quot;&gt;&lt;span style=&quot;font-size: 11pt; background-color: transparent; font-variant-numeric: normal; font-variant-east-asian: normal; font-variant-alternates: normal; font-variant-position: normal; vertical-align: baseline; text-wrap: wrap;&quot;&gt;S_FLA = 1&lt;/span&gt;&lt;/p&gt;&lt;/li&gt;&lt;/ul&gt;&lt;p style=&quot;line-height: 19.2px; margin-top: 0pt; margin-bottom: 10pt;&quot; dir=&quot;ltr&quot;&gt;&lt;span style=&quot;font-size: 11pt; font-family: Arial, sans-serif; background-color: transparent; font-variant-numeric: normal; font-variant-east-asian: normal; font-variant-alternates: normal; font-variant-position: normal; vertical-align: baseline; white-space-collapse: preserve;&quot;&gt;Ambos torcedores tristes:&lt;/span&gt;&lt;/p&gt;&lt;ul style=&quot;margin-top: 0px; margin-bottom: 0px; padding-inline-start: 48px; line-height: 19.2px;&quot;&gt;&lt;li style=&quot;list-style-type: disc; font-size: 11pt; font-family: Arial, sans-serif; background-color: transparent; font-variant-numeric: normal; font-variant-east-asian: normal; font-variant-alternates: normal; font-variant-position: normal; vertical-align: baseline; white-space: pre;&quot; aria-level=&quot;1&quot; dir=&quot;ltr&quot;&gt;&lt;p style=&quot;line-height: 11.7333px; margin-top: 0pt; margin-bottom: 0pt;&quot; role=&quot;presentation&quot; dir=&quot;ltr&quot;&gt;&lt;span style=&quot;font-size: 11pt; background-color: transparent; font-variant-numeric: normal; font-variant-east-asian: normal; font-variant-alternates: normal; font-variant-position: normal; vertical-align: baseline; text-wrap: wrap;&quot;&gt;S_FLU = 0&lt;/span&gt;&lt;/p&gt;&lt;/li&gt;&lt;li style=&quot;list-style-type: disc; font-size: 11pt; font-family: Arial, sans-serif; background-color: transparent; font-variant-numeric: normal; font-variant-east-asian: normal; font-variant-alternates: normal; font-variant-position: normal; vertical-align: baseline; white-space: pre;&quot; aria-level=&quot;1&quot; dir=&quot;ltr&quot;&gt;&lt;p style=&quot;line-height: 11.7333px; margin-top: 0pt; margin-bottom: 10pt;&quot; role=&quot;presentation&quot; dir=&quot;ltr&quot;&gt;&lt;span style=&quot;font-size: 11pt; background-color: transparent; font-variant-numeric: normal; font-variant-east-asian: normal; font-variant-alternates: normal; font-variant-position: normal; vertical-align: baseline; text-wrap: wrap;&quot;&gt;S_FLA = 0&lt;/span&gt;&lt;/p&gt;&lt;/li&gt;&lt;/ul&gt;&lt;/span&gt;&lt;/h1&gt;" style="text;html=1;whiteSpace=wrap;overflow=hidden;rounded=1;" vertex="1" parent="1">
          <mxGeometry x="-211" y="120" width="190" height="180" as="geometry" />
        </mxCell>
        <mxCell id="B9qtQq5T444P4j3lDMwM-19" value="&lt;h1 style=&quot;margin-top: 0px; line-height: 110%; padding-left: 30px;&quot;&gt;&lt;span id=&quot;docs-internal-guid-733098d0-7fff-f6c7-5be4-7a9e29a1f5f7&quot; style=&quot;font-weight:normal;&quot;&gt;&lt;p style=&quot;line-height: 110%; margin-top: 0pt; margin-bottom: 10pt;&quot; dir=&quot;ltr&quot;&gt;&lt;span style=&quot;font-size: 13pt; font-family: Arial, sans-serif; background-color: transparent; font-weight: 700; font-style: normal; font-variant: normal; text-decoration: none; vertical-align: baseline; white-space: pre-wrap;&quot;&gt;CASOS POSSÍVEIS PARA O DESAFIO 1:&lt;/span&gt;&lt;/p&gt;&lt;p style=&quot;line-height: 110%; margin-top: 0pt; margin-bottom: 5px;&quot; dir=&quot;ltr&quot;&gt;&lt;span style=&quot;font-size: 11pt; font-family: Arial, sans-serif; background-color: transparent; font-weight: 400; font-style: normal; font-variant: normal; text-decoration: none; vertical-align: baseline; white-space: pre-wrap;&quot;&gt;Torcedores do FLAMENGO felizes:&lt;/span&gt;&lt;/p&gt;&lt;ol style=&quot;margin-top: 0px; margin-bottom: 0px; padding-inline-start: 48px; line-height: 110%;&quot;&gt;&lt;li aria-level=&quot;1&quot; style=&quot;list-style-type: decimal; font-size: 11pt; font-family: Arial, sans-serif; background-color: transparent; font-weight: 400; font-style: normal; font-variant: normal; text-decoration: none; vertical-align: baseline; white-space: pre;&quot; dir=&quot;ltr&quot;&gt;&lt;p role=&quot;presentation&quot; style=&quot;line-height: 110%; margin-top: 0pt; margin-bottom: 0pt;&quot; dir=&quot;ltr&quot;&gt;&lt;span style=&quot;font-size: 11pt; font-family: Arial, sans-serif; background-color: transparent; font-weight: 400; font-style: normal; font-variant: normal; text-decoration: none; vertical-align: baseline; white-space: pre-wrap;&quot;&gt;#FLA ganha&lt;/span&gt;&lt;/p&gt;&lt;/li&gt;&lt;li aria-level=&quot;1&quot; style=&quot;list-style-type: decimal; font-size: 11pt; font-family: Arial, sans-serif; background-color: transparent; font-weight: 400; font-style: normal; font-variant: normal; text-decoration: none; vertical-align: baseline; white-space: pre;&quot; dir=&quot;ltr&quot;&gt;&lt;p role=&quot;presentation&quot; style=&quot;line-height: 110%; margin-top: 0pt; margin-bottom: 0pt;&quot; dir=&quot;ltr&quot;&gt;&lt;span style=&quot;font-size: 11pt; font-family: Arial, sans-serif; background-color: transparent; font-weight: 400; font-style: normal; font-variant: normal; text-decoration: none; vertical-align: baseline; white-space: pre-wrap;&quot;&gt;#FLA ganha + Gabigol faz gol&lt;/span&gt;&lt;/p&gt;&lt;/li&gt;&lt;li aria-level=&quot;1&quot; style=&quot;list-style-type: decimal; font-size: 11pt; font-family: Arial, sans-serif; background-color: transparent; font-weight: 400; font-style: normal; font-variant: normal; text-decoration: none; vertical-align: baseline; white-space: pre;&quot; dir=&quot;ltr&quot;&gt;&lt;p role=&quot;presentation&quot; style=&quot;line-height: 110%; margin-top: 0pt; margin-bottom: 0pt;&quot; dir=&quot;ltr&quot;&gt;&lt;span style=&quot;font-size: 11pt; font-family: Arial, sans-serif; background-color: transparent; font-weight: 400; font-style: normal; font-variant: normal; text-decoration: none; vertical-align: baseline; white-space: pre-wrap;&quot;&gt;#FLA ganha + 3 Defesas&lt;/span&gt;&lt;/p&gt;&lt;/li&gt;&lt;li aria-level=&quot;1&quot; style=&quot;list-style-type: decimal; font-size: 11pt; font-family: Arial, sans-serif; background-color: transparent; font-weight: 400; font-style: normal; font-variant: normal; text-decoration: none; vertical-align: baseline; white-space: pre;&quot; dir=&quot;ltr&quot;&gt;&lt;p role=&quot;presentation&quot; style=&quot;line-height: 110%; margin-top: 0pt; margin-bottom: 0pt;&quot; dir=&quot;ltr&quot;&gt;&lt;span style=&quot;font-size: 11pt; font-family: Arial, sans-serif; background-color: transparent; font-weight: 400; font-style: normal; font-variant: normal; text-decoration: none; vertical-align: baseline; white-space: pre-wrap;&quot;&gt;#Empate + Gabigol faz gol &lt;/span&gt;&lt;/p&gt;&lt;/li&gt;&lt;li aria-level=&quot;1&quot; style=&quot;list-style-type: decimal; font-size: 11pt; font-family: Arial, sans-serif; background-color: transparent; font-weight: 400; font-style: normal; font-variant: normal; text-decoration: none; vertical-align: baseline; white-space: pre;&quot; dir=&quot;ltr&quot;&gt;&lt;p role=&quot;presentation&quot; style=&quot;line-height: 110%; margin-top: 0pt; margin-bottom: 10pt;&quot; dir=&quot;ltr&quot;&gt;&lt;span style=&quot;font-size: 11pt; font-family: Arial, sans-serif; background-color: transparent; font-weight: 400; font-style: normal; font-variant: normal; text-decoration: none; vertical-align: baseline; white-space: pre-wrap;&quot;&gt;#Empate + Gabigol faz gol + 3 Defesas&lt;/span&gt;&lt;/p&gt;&lt;/li&gt;&lt;/ol&gt;&lt;p style=&quot;line-height: 110%; margin-top: 0pt; margin-bottom: 5px;&quot; dir=&quot;ltr&quot;&gt;&lt;span style=&quot;font-size: 11pt; font-family: Arial, sans-serif; background-color: transparent; font-weight: 400; font-style: normal; font-variant: normal; text-decoration: none; vertical-align: baseline; white-space: pre-wrap;&quot;&gt;Torcedores do FLUMINENSE felizes:&lt;/span&gt;&lt;/p&gt;&lt;ol style=&quot;margin-top: 0px; margin-bottom: 0px; padding-inline-start: 48px; line-height: 110%;&quot;&gt;&lt;li aria-level=&quot;1&quot; style=&quot;list-style-type: decimal; font-size: 11pt; font-family: Arial, sans-serif; background-color: transparent; font-weight: 400; font-style: normal; font-variant: normal; text-decoration: none; vertical-align: baseline; white-space: pre;&quot; dir=&quot;ltr&quot;&gt;&lt;p role=&quot;presentation&quot; style=&quot;line-height: 110%; margin-top: 0pt; margin-bottom: 0pt;&quot; dir=&quot;ltr&quot;&gt;&lt;span style=&quot;font-size: 11pt; font-family: Arial, sans-serif; background-color: transparent; font-weight: 400; font-style: normal; font-variant: normal; text-decoration: none; vertical-align: baseline; white-space: pre-wrap;&quot;&gt;#FLU ganha&lt;/span&gt;&lt;/p&gt;&lt;/li&gt;&lt;li aria-level=&quot;1&quot; style=&quot;list-style-type: decimal; font-size: 11pt; font-family: Arial, sans-serif; background-color: transparent; font-weight: 400; font-style: normal; font-variant: normal; text-decoration: none; vertical-align: baseline; white-space: pre;&quot; dir=&quot;ltr&quot;&gt;&lt;p role=&quot;presentation&quot; style=&quot;line-height: 110%; margin-top: 0pt; margin-bottom: 0pt;&quot; dir=&quot;ltr&quot;&gt;&lt;span style=&quot;font-size: 11pt; font-family: Arial, sans-serif; background-color: transparent; font-weight: 400; font-style: normal; font-variant: normal; text-decoration: none; vertical-align: baseline; white-space: pre-wrap;&quot;&gt;#FLU ganha + 3 Defesas&lt;/span&gt;&lt;/p&gt;&lt;/li&gt;&lt;li aria-level=&quot;1&quot; style=&quot;list-style-type: decimal; font-size: 11pt; font-family: Arial, sans-serif; background-color: transparent; font-weight: 400; font-style: normal; font-variant: normal; text-decoration: none; vertical-align: baseline; white-space: pre;&quot; dir=&quot;ltr&quot;&gt;&lt;p role=&quot;presentation&quot; style=&quot;line-height: 110%; margin-top: 0pt; margin-bottom: 0pt;&quot; dir=&quot;ltr&quot;&gt;&lt;span style=&quot;font-size: 11pt; font-family: Arial, sans-serif; background-color: transparent; font-weight: 400; font-style: normal; font-variant: normal; text-decoration: none; vertical-align: baseline; white-space: pre-wrap;&quot;&gt;#FLU ganha + Gabigol faz gol&lt;/span&gt;&lt;/p&gt;&lt;/li&gt;&lt;li aria-level=&quot;1&quot; style=&quot;list-style-type: decimal; font-size: 11pt; font-family: Arial, sans-serif; background-color: transparent; font-weight: 400; font-style: normal; font-variant: normal; text-decoration: none; vertical-align: baseline; white-space: pre;&quot; dir=&quot;ltr&quot;&gt;&lt;p role=&quot;presentation&quot; style=&quot;line-height: 110%; margin-top: 0pt; margin-bottom: 10pt;&quot; dir=&quot;ltr&quot;&gt;&lt;span style=&quot;font-size: 11pt; font-family: Arial, sans-serif; background-color: transparent; font-weight: 400; font-style: normal; font-variant: normal; text-decoration: none; vertical-align: baseline; white-space: pre-wrap;&quot;&gt;#FLU ganha + Gabigol faz gol + 3 Defesas&lt;/span&gt;&lt;/p&gt;&lt;/li&gt;&lt;/ol&gt;&lt;p style=&quot;line-height: 110%; margin-top: 0pt; margin-bottom: 5px;&quot; dir=&quot;ltr&quot;&gt;&lt;span style=&quot;font-size: 11pt; font-family: Arial, sans-serif; background-color: transparent; font-weight: 400; font-style: normal; font-variant: normal; text-decoration: none; vertical-align: baseline; white-space: pre-wrap;&quot;&gt;Torcedores dos dois times felizes:&lt;/span&gt;&lt;/p&gt;&lt;ol style=&quot;margin-top: 0px; margin-bottom: 0px; padding-inline-start: 48px; line-height: 110%;&quot;&gt;&lt;li aria-level=&quot;1&quot; style=&quot;list-style-type: decimal; font-size: 11pt; font-family: Arial, sans-serif; background-color: transparent; font-weight: 400; font-style: normal; font-variant: normal; text-decoration: none; vertical-align: baseline; white-space: pre;&quot; dir=&quot;ltr&quot;&gt;&lt;p role=&quot;presentation&quot; style=&quot;line-height: 110%; margin-top: 0pt; margin-bottom: 0pt;&quot; dir=&quot;ltr&quot;&gt;&lt;span style=&quot;font-size: 11pt; font-family: Arial, sans-serif; background-color: transparent; font-weight: 400; font-style: normal; font-variant: normal; text-decoration: none; vertical-align: baseline; white-space: pre-wrap;&quot;&gt;#FLA ganha + 3 Defesas&lt;/span&gt;&lt;/p&gt;&lt;/li&gt;&lt;li aria-level=&quot;1&quot; style=&quot;list-style-type: decimal; font-size: 11pt; font-family: Arial, sans-serif; background-color: transparent; font-weight: 400; font-style: normal; font-variant: normal; text-decoration: none; vertical-align: baseline; white-space: pre;&quot; dir=&quot;ltr&quot;&gt;&lt;p role=&quot;presentation&quot; style=&quot;line-height: 110%; margin-top: 0pt; margin-bottom: 10pt;&quot; dir=&quot;ltr&quot;&gt;&lt;span style=&quot;font-size: 11pt; font-family: Arial, sans-serif; background-color: transparent; font-weight: 400; font-style: normal; font-variant: normal; text-decoration: none; vertical-align: baseline; white-space: pre-wrap;&quot;&gt;#FLA ganha + Gabigol faz gol + 3 Defesas&lt;/span&gt;&lt;/p&gt;&lt;/li&gt;&lt;/ol&gt;&lt;p style=&quot;line-height: 110%; margin-top: 0pt; margin-bottom: 1px;&quot; dir=&quot;ltr&quot;&gt;&lt;span style=&quot;font-size: 11pt; font-family: Arial, sans-serif; background-color: transparent; font-weight: 400; font-style: normal; font-variant: normal; text-decoration: none; vertical-align: baseline; white-space: pre-wrap;&quot;&gt;Torcedores dos dois times tristes: &lt;/span&gt;&lt;/p&gt;&lt;p style=&quot;line-height: 110%; margin-top: 0pt; margin-bottom: 10pt;&quot; dir=&quot;ltr&quot;&gt;&lt;/p&gt;&lt;ol style=&quot;margin-top: 0px; margin-bottom: 0px; padding-inline-start: 48px; line-height: 110%;&quot;&gt;&lt;li aria-level=&quot;1&quot; style=&quot;list-style-type: decimal; font-size: 11pt; font-family: Arial, sans-serif; background-color: transparent; font-weight: 400; font-style: normal; font-variant: normal; text-decoration: none; vertical-align: baseline; white-space: pre;&quot; dir=&quot;ltr&quot;&gt;&lt;p role=&quot;presentation&quot; style=&quot;line-height: 110%; margin-top: 0pt; margin-bottom: 2px;&quot; dir=&quot;ltr&quot;&gt;&lt;span style=&quot;font-size: 11pt; font-family: Arial, sans-serif; background-color: transparent; font-weight: 400; font-style: normal; font-variant: normal; text-decoration: none; vertical-align: baseline; white-space: pre-wrap;&quot;&gt;#Empate&lt;/span&gt;&lt;/p&gt;&lt;/li&gt;&lt;li aria-level=&quot;1&quot; style=&quot;list-style-type: decimal; font-size: 11pt; font-family: Arial, sans-serif; background-color: transparent; font-weight: 400; font-style: normal; font-variant: normal; text-decoration: none; vertical-align: baseline; white-space: pre;&quot; dir=&quot;ltr&quot;&gt;&lt;p role=&quot;presentation&quot; style=&quot;line-height: 110%; margin-top: 0pt; margin-bottom: 10pt;&quot; dir=&quot;ltr&quot;&gt;&lt;span style=&quot;font-size: 11pt; font-family: Arial, sans-serif; background-color: transparent; font-weight: 400; font-style: normal; font-variant: normal; text-decoration: none; vertical-align: baseline; white-space: pre-wrap;&quot;&gt;#Empate + 3 Defesas&lt;/span&gt;&lt;/p&gt;&lt;/li&gt;&lt;/ol&gt;&lt;/span&gt;&lt;/h1&gt;" style="text;html=1;whiteSpace=wrap;overflow=hidden;rounded=1;strokeColor=default;strokeWidth=2;opacity=50;" vertex="1" parent="1">
          <mxGeometry x="-430" y="558" width="410" height="540" as="geometry" />
        </mxCell>
        <mxCell id="B9qtQq5T444P4j3lDMwM-63" style="edgeStyle=orthogonalEdgeStyle;rounded=1;orthogonalLoop=1;jettySize=auto;html=1;exitX=0;exitY=0.75;exitDx=0;exitDy=0;exitPerimeter=0;endArrow=oval;endFill=1;" edge="1" parent="1" source="B9qtQq5T444P4j3lDMwM-23">
          <mxGeometry relative="1" as="geometry">
            <mxPoint x="-730" y="338" as="targetPoint" />
            <mxPoint x="-560" y="338" as="sourcePoint" />
          </mxGeometry>
        </mxCell>
        <mxCell id="B9qtQq5T444P4j3lDMwM-64" style="edgeStyle=orthogonalEdgeStyle;rounded=1;orthogonalLoop=1;jettySize=auto;html=1;exitX=0;exitY=0.25;exitDx=0;exitDy=0;exitPerimeter=0;endArrow=oval;endFill=1;" edge="1" parent="1" source="B9qtQq5T444P4j3lDMwM-23">
          <mxGeometry relative="1" as="geometry">
            <mxPoint x="-616" y="308" as="targetPoint" />
          </mxGeometry>
        </mxCell>
        <mxCell id="B9qtQq5T444P4j3lDMwM-23" value="CHECA_EMPATE + GAB" style="verticalLabelPosition=bottom;shadow=0;dashed=0;align=center;html=1;verticalAlign=top;shape=mxgraph.electrical.logic_gates.logic_gate;operation=and;numInputs=2;rounded=1;" vertex="1" parent="1">
          <mxGeometry x="-556" y="293" width="100" height="60" as="geometry" />
        </mxCell>
        <mxCell id="B9qtQq5T444P4j3lDMwM-77" style="edgeStyle=orthogonalEdgeStyle;rounded=1;orthogonalLoop=1;jettySize=auto;html=1;exitX=0;exitY=0.25;exitDx=0;exitDy=0;exitPerimeter=0;endArrow=oval;endFill=1;" edge="1" parent="1" source="B9qtQq5T444P4j3lDMwM-30">
          <mxGeometry relative="1" as="geometry">
            <mxPoint x="-650" y="503.2211111111111" as="targetPoint" />
            <mxPoint x="-560" y="503.11" as="sourcePoint" />
          </mxGeometry>
        </mxCell>
        <mxCell id="B9qtQq5T444P4j3lDMwM-78" style="edgeStyle=orthogonalEdgeStyle;rounded=1;orthogonalLoop=1;jettySize=auto;html=1;exitX=0;exitY=0.75;exitDx=0;exitDy=0;exitPerimeter=0;endArrow=oval;endFill=1;" edge="1" parent="1" source="B9qtQq5T444P4j3lDMwM-30">
          <mxGeometry relative="1" as="geometry">
            <mxPoint x="-770" y="533.2211111111111" as="targetPoint" />
            <mxPoint x="-560" y="533.11" as="sourcePoint" />
          </mxGeometry>
        </mxCell>
        <mxCell id="B9qtQq5T444P4j3lDMwM-30" value="CHECA_FLA_GANHA + DEF" style="verticalLabelPosition=bottom;shadow=0;dashed=0;align=center;html=1;verticalAlign=top;shape=mxgraph.electrical.logic_gates.logic_gate;operation=and;rounded=1;" vertex="1" parent="1">
          <mxGeometry x="-556" y="488.11" width="100" height="60" as="geometry" />
        </mxCell>
        <mxCell id="B9qtQq5T444P4j3lDMwM-31" value="FLA" style="text;html=1;align=center;verticalAlign=middle;whiteSpace=wrap;rounded=1;" vertex="1" parent="1">
          <mxGeometry x="-800" y="600" width="60" height="30" as="geometry" />
        </mxCell>
        <mxCell id="B9qtQq5T444P4j3lDMwM-32" value="FLU" style="text;html=1;align=center;verticalAlign=middle;whiteSpace=wrap;rounded=1;" vertex="1" parent="1">
          <mxGeometry x="-720" y="600" width="60" height="30" as="geometry" />
        </mxCell>
        <mxCell id="B9qtQq5T444P4j3lDMwM-33" value="GAB" style="text;html=1;align=center;verticalAlign=middle;whiteSpace=wrap;rounded=1;" vertex="1" parent="1">
          <mxGeometry x="-760" y="600" width="60" height="30" as="geometry" />
        </mxCell>
        <mxCell id="B9qtQq5T444P4j3lDMwM-34" value="DEF" style="text;html=1;align=center;verticalAlign=middle;whiteSpace=wrap;rounded=1;" vertex="1" parent="1">
          <mxGeometry x="-681" y="600" width="60" height="30" as="geometry" />
        </mxCell>
        <mxCell id="B9qtQq5T444P4j3lDMwM-60" style="edgeStyle=orthogonalEdgeStyle;rounded=1;orthogonalLoop=1;jettySize=auto;html=1;exitX=0.5;exitY=1;exitDx=0;exitDy=0;entryX=0.5;entryY=0;entryDx=0;entryDy=0;endArrow=none;endFill=0;" edge="1" parent="1" source="B9qtQq5T444P4j3lDMwM-61" target="B9qtQq5T444P4j3lDMwM-62">
          <mxGeometry relative="1" as="geometry">
            <mxPoint x="-616" y="1023" as="targetPoint" />
          </mxGeometry>
        </mxCell>
        <mxCell id="B9qtQq5T444P4j3lDMwM-61" value="EMP" style="text;html=1;align=center;verticalAlign=middle;whiteSpace=wrap;rounded=1;" vertex="1" parent="1">
          <mxGeometry x="-646" y="83" width="60" height="30" as="geometry" />
        </mxCell>
        <mxCell id="B9qtQq5T444P4j3lDMwM-62" value="EMP" style="text;html=1;align=center;verticalAlign=middle;whiteSpace=wrap;rounded=1;" vertex="1" parent="1">
          <mxGeometry x="-646" y="600" width="60" height="30" as="geometry" />
        </mxCell>
        <mxCell id="B9qtQq5T444P4j3lDMwM-75" style="edgeStyle=orthogonalEdgeStyle;rounded=1;orthogonalLoop=1;jettySize=auto;html=1;exitX=0;exitY=0.25;exitDx=0;exitDy=0;exitPerimeter=0;endArrow=oval;endFill=1;" edge="1" parent="1" source="B9qtQq5T444P4j3lDMwM-68">
          <mxGeometry relative="1" as="geometry">
            <mxPoint x="-690" y="453.2211111111111" as="targetPoint" />
            <mxPoint x="-270" y="452.9999999999999" as="sourcePoint" />
          </mxGeometry>
        </mxCell>
        <mxCell id="B9qtQq5T444P4j3lDMwM-76" value="FLU_GANHA" style="edgeLabel;html=1;align=center;verticalAlign=middle;resizable=0;points=[];rounded=1;" vertex="1" connectable="0" parent="B9qtQq5T444P4j3lDMwM-75">
          <mxGeometry x="0.1284" y="1" relative="1" as="geometry">
            <mxPoint as="offset" />
          </mxGeometry>
        </mxCell>
        <mxCell id="B9qtQq5T444P4j3lDMwM-68" value="" style="verticalLabelPosition=bottom;shadow=0;dashed=0;align=center;html=1;verticalAlign=top;shape=mxgraph.electrical.logic_gates.logic_gate;operation=or;numInputs=2;rounded=1;" vertex="1" parent="1">
          <mxGeometry x="-266" y="438" width="100" height="60" as="geometry" />
        </mxCell>
        <mxCell id="B9qtQq5T444P4j3lDMwM-74" style="edgeStyle=orthogonalEdgeStyle;rounded=1;orthogonalLoop=1;jettySize=auto;html=1;exitX=1;exitY=0.5;exitDx=0;exitDy=0;exitPerimeter=0;entryX=0;entryY=0.75;entryDx=0;entryDy=0;entryPerimeter=0;endArrow=none;endFill=0;" edge="1" parent="1" source="B9qtQq5T444P4j3lDMwM-30" target="B9qtQq5T444P4j3lDMwM-68">
          <mxGeometry relative="1" as="geometry" />
        </mxCell>
        <mxCell id="7K-WJXPaCWW79EUaWJ7K-3" style="edgeStyle=orthogonalEdgeStyle;rounded=1;orthogonalLoop=1;jettySize=auto;html=1;exitX=0;exitY=0.75;exitDx=0;exitDy=0;exitPerimeter=0;endArrow=oval;endFill=1;" edge="1" parent="1" source="7K-WJXPaCWW79EUaWJ7K-1">
          <mxGeometry relative="1" as="geometry">
            <mxPoint x="-770" y="398" as="targetPoint" />
          </mxGeometry>
        </mxCell>
        <mxCell id="7K-WJXPaCWW79EUaWJ7K-4" value="FLA_GANHA" style="edgeLabel;html=1;align=center;verticalAlign=middle;resizable=0;points=[];rounded=1;" connectable="0" vertex="1" parent="7K-WJXPaCWW79EUaWJ7K-3">
          <mxGeometry x="0.0306" y="-3" relative="1" as="geometry">
            <mxPoint x="1" as="offset" />
          </mxGeometry>
        </mxCell>
        <mxCell id="7K-WJXPaCWW79EUaWJ7K-1" value="" style="verticalLabelPosition=bottom;shadow=0;dashed=0;align=center;html=1;verticalAlign=top;shape=mxgraph.electrical.logic_gates.logic_gate;operation=or;numInputs=2;rounded=1;" vertex="1" parent="1">
          <mxGeometry x="-256" y="353" width="100" height="60" as="geometry" />
        </mxCell>
        <mxCell id="7K-WJXPaCWW79EUaWJ7K-2" style="edgeStyle=orthogonalEdgeStyle;rounded=1;orthogonalLoop=1;jettySize=auto;html=1;exitX=0;exitY=0.25;exitDx=0;exitDy=0;exitPerimeter=0;entryX=1;entryY=0.5;entryDx=0;entryDy=0;entryPerimeter=0;endArrow=none;endFill=0;" edge="1" parent="1" source="7K-WJXPaCWW79EUaWJ7K-1" target="B9qtQq5T444P4j3lDMwM-23">
          <mxGeometry relative="1" as="geometry" />
        </mxCell>
      </root>
    </mxGraphModel>
  </diagram>
</mxfile>
